<svg id="Layer_1" data-name="Layer 1" xmlns="http://www.w3.org/2000/svg" viewBox="0 0 32 32"><path d="M19.56,7.23h0a7,7,0,0,0-1.63-.83,3.91,3.91,0,0,0-3.29.37,3.51,3.51,0,0,0-1.06,1.09L13,7.45a2.93,2.93,0,0,1,.56-.66,4.1,4.1,0,0,1,2.88-.94A4.9,4.9,0,0,1,19.56,7.23Z" fill="#d19213"/><path d="M19.54,7.22A4.35,4.35,0,0,0,17,6.61a2.84,2.84,0,0,0-2.13.94,2.16,2.16,0,0,0-.37.89l-.91-.59a3.51,3.51,0,0,1,1.06-1.09,3.91,3.91,0,0,1,3.29-.37A7,7,0,0,1,19.54,7.22Z" fill="#e5a310"/><path d="M18.33,20.55V20a3.49,3.49,0,0,0,2.31-1.83c.55-1.59-.9-4.15-4.1-5.39V10.87l.36.15c2.32.93,4.88,2.67,5.12,4.68A4.36,4.36,0,0,1,18.33,20.55Z" fill="#e5a310"/><path d="M20.64,18.19A3.49,3.49,0,0,1,18.33,20v-.55a1.58,1.58,0,0,0,1.2-1.58c.1-1.42-1-2.18-3-3.37V12.8C19.74,14,21.19,16.6,20.64,18.19Z" fill="#d19213"/><circle cx="19.72" cy="7.39" r="0.81" fill="#e5a310"/><polygon points="13.94 22.13 15.11 22.93 15.11 24.39 14.64 24.39 14.64 23.24 13.94 22.76 13.24 23.24 13.24 23.84 13.94 23.84 13.94 24.39 12.78 24.39 12.78 22.93 13.94 22.13" fill="#1d3b77"/><path d="M6.09,22.75a.71.71,0,0,0-.56-.24h0c-.26,0-.42.09-.42.23s.06.17.31.22l.44.1a.65.65,0,0,1,.56.7c0,.42-.37.67-.89.67h0a1,1,0,0,1-1-.49l.39-.29a.64.64,0,0,0,.61.35h0c.25,0,.39-.1.39-.25s-.09-.22-.28-.26l-.5-.13a.6.6,0,0,1-.53-.6c0-.45.38-.67.93-.67h0a1.09,1.09,0,0,1,.84.31Z" fill="#1d3b77"/><path d="M6.81,24.39V22.13h.48v2.26Z" fill="#1d3b77"/><path d="M9.13,22.13h.53L8.94,23.3l.72,1.09H9.13l-.58-.89H8.18v.89H7.69V22.13h.49v.92h.4Z" fill="#1d3b77"/><path d="M11.22,23.33l.69-1.2h.47v2.26h-.47V22.93l-.54,1h-.3l-.54-1v1.46h-.47V22.13h.47Z" fill="#1d3b77"/><path d="M17.41,23v-.89h.48v2.24h-.48v-.9h-1v.9h-.48V22.13h.48V23Z" fill="#1d3b77"/><path d="M19.44,22.09a1.08,1.08,0,0,1,1.15,1.16h0a1.08,1.08,0,0,1-1.15,1.16h0a1.08,1.08,0,0,1-1.15-1.16h0a1.08,1.08,0,0,1,1.15-1.16Zm0,1.87a.65.65,0,0,0,.67-.71h0a.65.65,0,0,0-.67-.71h0a.65.65,0,0,0-.67.71h0a.65.65,0,0,0,.67.71Z" fill="#1d3b77"/><path d="M22.14,23.32l.68-1.19h.47v2.24h-.47V22.93l-.53,1H22l-.54-1v1.44H21V22.13h.46Z" fill="#1d3b77"/><path d="M25.21,22.13v.45h-1V23h.92v.44h-.92v.45h1v.45H23.69V22.13Z" fill="#1d3b77"/><path d="M27.17,22.75a.71.71,0,0,0-.56-.24h0c-.26,0-.42.09-.42.22s.06.18.3.23l.44.09a.65.65,0,0,1,.55.7c0,.41-.37.66-.88.66h0a1,1,0,0,1-1-.49l.39-.28a.63.63,0,0,0,.61.34h0c.25,0,.39-.09.39-.25s-.09-.21-.28-.26l-.5-.12a.58.58,0,0,1-.51-.6c0-.43.37-.66.91-.66h0a1.09,1.09,0,0,1,.82.31Z" fill="#1d3b77"/><polygon points="12.22 11.84 11.93 12.03 11.87 7.27 12.27 7.54 12.22 11.84" fill="#e5a310"/><polygon points="13.27 8.2 12.88 7.94 12.92 11.38 13.23 11.17 13.27 8.2" fill="#e5a310"/><polygon points="12.77 7.87 12.38 7.61 12.43 11.7 12.73 11.5 12.77 7.87" fill="#e5a310"/><polygon points="15.26 9.53 14.91 9.29 14.96 14.07 15.2 14.23 15.26 9.53" fill="#e5a310"/><polygon points="14.76 9.19 14.4 8.95 14.46 13.75 14.71 13.91 14.76 9.19" fill="#e5a310"/><polygon points="15.76 9.86 15.41 9.63 15.47 14.4 15.7 14.54 15.76 9.86" fill="#e5a310"/><polygon points="14.46 13.95 14.54 20.55 14.63 20.55 14.7 14.1 14.46 13.95" fill="#e5a310"/><polygon points="13.39 8.28 13.54 20.55 13.62 20.55 13.77 8.53 13.39 8.28" fill="#e5a310"/><polygon points="15.47 14.58 15.54 20.55 15.63 20.55 15.7 14.73 15.47 14.58" fill="#e5a310"/><polygon points="14.96 14.26 15.04 20.55 15.13 20.55 15.2 14.41 14.96 14.26" fill="#e5a310"/><polygon points="17.49 15.85 17.55 20.55 17.64 20.55 17.69 15.98 17.49 15.85" fill="#e5a310"/><polygon points="16.99 15.54 17.05 20.55 17.14 20.55 17.19 15.66 16.99 15.54" fill="#e5a310"/><polygon points="15.98 14.9 16.04 20.55 16.13 20.55 16.2 15.04 15.98 14.9" fill="#e5a310"/><polygon points="16.48 15.22 16.55 20.55 16.63 20.55 16.7 15.35 16.48 15.22" fill="#e5a310"/><polygon points="13.89 8.62 14.04 20.55 14.13 20.55 14.27 8.86 13.89 8.62" fill="#e5a310"/><polygon points="10.44 13.19 10.53 20.55 10.61 20.55 10.7 13.02 10.44 13.19" fill="#e5a310"/><polygon points="9.94 13.51 10.02 20.55 10.11 20.55 10.2 13.35 9.94 13.51" fill="#e5a310"/><polygon points="12.93 11.59 13.03 20.55 13.12 20.55 13.23 11.4 12.93 11.59" fill="#e5a310"/><polygon points="10.94 12.87 11.03 20.55 11.12 20.55 11.21 12.7 10.94 12.87" fill="#e5a310"/><polygon points="12.43 11.91 12.53 20.55 12.62 20.55 12.72 11.72 12.43 11.91" fill="#e5a310"/><polygon points="11.93 12.23 12.03 20.55 12.12 20.55 12.22 12.05 11.93 12.23" fill="#e5a310"/><polygon points="11.44 12.55 11.53 20.55 11.62 20.55 11.71 12.37 11.44 12.55" fill="#e5a310"/><path d="M8,26,7.8,26l-.12-.08a.41.41,0,0,1-.07-.11.34.34,0,0,1,0-.28.47.47,0,0,1,.07-.12l.12-.07a.57.57,0,0,1,.3,0,.27.27,0,0,1,.12.09l-.08.08a.24.24,0,0,0-.09-.06.16.16,0,0,0-.1,0h-.1l-.07.05a.35.35,0,0,0,0,.08.16.16,0,0,0,0,.1.18.18,0,0,0,0,.1l0,.07a.18.18,0,0,0,.07,0l.1,0,.1,0a.24.24,0,0,0,.09-.06l.08.08A.36.36,0,0,1,8.1,26,.37.37,0,0,1,8,26Z" fill="#e5a310"/><path d="M8.35,26V25.5h.12v.1a.14.14,0,0,1,.07-.08.28.28,0,0,1,.13,0v.12h0a.14.14,0,0,0-.11,0s0,.06,0,.12V26Z" fill="#e5a310"/><path d="M9,26a.24.24,0,0,1-.15,0,.24.24,0,0,1-.11-.09.34.34,0,0,1,0-.28.28.28,0,0,1,.1-.09.26.26,0,0,1,.28,0,.2.2,0,0,1,.09.09.32.32,0,0,1,0,.14v0H8.84v-.08h.37l-.05,0a.24.24,0,0,0,0-.08l-.05-.05-.08,0-.08,0,0,.05a.13.13,0,0,0,0,.09v0a.24.24,0,0,0,0,.08.17.17,0,0,0,.06.06h.17l.06,0,.07.07a.22.22,0,0,1-.09.07Z" fill="#e5a310"/><path d="M9.56,26l-.1,0A.11.11,0,0,1,9.39,26a.11.11,0,0,1,0-.08.13.13,0,0,1,0-.08.1.1,0,0,1,.06-.05.27.27,0,0,1,.13,0h.15v.08H9.59s-.07,0-.08,0,0,0,0,.05,0,0,0,.05l.08,0,.08,0a.15.15,0,0,0,.05-.06l0,.07a.11.11,0,0,1-.06.07A.24.24,0,0,1,9.56,26Zm.16,0v-.31a.12.12,0,0,0,0-.09.17.17,0,0,0-.1,0l-.09,0-.07,0,0-.09a.19.19,0,0,1,.1,0l.12,0a.24.24,0,0,1,.18.06.2.2,0,0,1,.06.16V26Z" fill="#e5a310"/><path d="M10,25.6v-.1h.35v.1Zm.27.43a.17.17,0,0,1-.13-.05.14.14,0,0,1-.05-.13v-.47h.12v.47a.14.14,0,0,0,0,.06l.05,0,.07,0,0,.08s0,0-.06,0Z" fill="#e5a310"/><path d="M10.52,25.41l0,0s0,0,0-.05,0,0,0-.05a.05.05,0,0,1,0,0,.08.08,0,0,1,.06,0,.06.06,0,0,1,0,0s0,0,0,.06A.08.08,0,0,1,10.52,25.41Zm-.06.61V25.5h.13V26Z" fill="#e5a310"/><path d="M11.07,25.49a.2.2,0,0,1,.11,0,.18.18,0,0,1,.08.07.28.28,0,0,1,0,.13V26h-.13v-.28a.18.18,0,0,0,0-.11.12.12,0,0,0-.09,0,.14.14,0,0,0-.13.07.2.2,0,0,0,0,.09V26h-.12V25.5h.12v.14l0,0a.16.16,0,0,1,.08-.08A.21.21,0,0,1,11.07,25.49Z" fill="#e5a310"/><path d="M11.69,26a.28.28,0,0,1-.13,0,.22.22,0,0,1-.1-.09.29.29,0,0,1,0-.14.28.28,0,0,1,0-.13.22.22,0,0,1,.1-.09.28.28,0,0,1,.13,0,.27.27,0,0,1,.12,0,.16.16,0,0,1,.08.08.23.23,0,0,1,0,.14.24.24,0,0,1,0,.15.16.16,0,0,1-.08.08A.27.27,0,0,1,11.69,26Zm0,.22-.15,0a.24.24,0,0,1-.11-.06l.06-.09.08.05h.11a.23.23,0,0,0,.13,0,.21.21,0,0,0,0-.12V25.5H12v.44a.29.29,0,0,1-.07.21A.28.28,0,0,1,11.71,26.22Zm0-.33h.08a.34.34,0,0,0,.06-.06.19.19,0,0,0,0-.08.14.14,0,0,0,0-.07.17.17,0,0,0-.06-.06h-.16s-.05,0-.06.06a.14.14,0,0,0,0,.07.19.19,0,0,0,0,.08.17.17,0,0,0,.06.06Z" fill="#e5a310"/><path d="M12.4,25.6v-.1h.35v.1Zm.27.43a.2.2,0,0,1-.14-.05.17.17,0,0,1,0-.13v-.47h.12v.47a.14.14,0,0,0,0,.06l0,0,.07,0,0,.08s0,0,0,0Z" fill="#e5a310"/><path d="M13.21,25.49a.2.2,0,0,1,.11,0,.18.18,0,0,1,.08.07.28.28,0,0,1,0,.13V26H13.3v-.28a.18.18,0,0,0,0-.11.12.12,0,0,0-.09,0,.11.11,0,0,0-.08,0,.12.12,0,0,0,0,.05.2.2,0,0,0,0,.09V26h-.12v-.73H13v.35l0,0s0-.06.08-.08A.21.21,0,0,1,13.21,25.49Z" fill="#e5a310"/><path d="M13.85,26a.28.28,0,0,1-.15,0,.22.22,0,0,1-.1-.09.27.27,0,0,1,0-.28.18.18,0,0,1,.1-.09.21.21,0,0,1,.14,0,.2.2,0,0,1,.13,0,.28.28,0,0,1,.1.09.32.32,0,0,1,0,.14v0h-.44v-.08H14l0,0a.24.24,0,0,0,0-.08s0,0-.06-.05l-.07,0-.08,0s0,0-.06.05a.24.24,0,0,0,0,.09v0a.13.13,0,0,0,0,.08.17.17,0,0,0,.06.06h.17l.06,0,.07.07L14,26Z" fill="#e5a310"/><path d="M14.76,26l-.15,0L14.49,26l0-.1a.23.23,0,0,0,.1,0,.27.27,0,0,0,.12,0l.09,0a.05.05,0,0,0,.05,0,.08.08,0,0,0,0,0,.05.05,0,0,0,0-.05.06.06,0,0,0-.06,0l-.08,0-.08,0-.08,0a.17.17,0,0,1-.06-.06s0-.05,0-.09a.17.17,0,0,1,0-.1.24.24,0,0,1,.09-.08.34.34,0,0,1,.15,0h.13l.1.05,0,.09-.09,0H14.7a.07.07,0,0,0,0,0,.08.08,0,0,0,0,0,0,0,0,0,0,0,.05.05.05,0,0,0,.05,0l.08,0,.09,0,.08,0,.06.06a.2.2,0,0,1,0,.09.19.19,0,0,1,0,.1.16.16,0,0,1-.09.07A.35.35,0,0,1,14.76,26Z" fill="#e5a310"/><path d="M15.18,26.21V25.5h.12v.71Zm.29-.18a.27.27,0,0,1-.12,0,.24.24,0,0,1-.08-.09.39.39,0,0,1,0-.3.24.24,0,0,1,.08-.09.27.27,0,0,1,.12,0,.23.23,0,0,1,.14,0,.2.2,0,0,1,.09.09.27.27,0,0,1,0,.28.28.28,0,0,1-.09.1A.32.32,0,0,1,15.47,26Zm0-.11a.14.14,0,0,0,.13-.07.21.21,0,0,0,0-.18.14.14,0,0,0-.13-.07.11.11,0,0,0-.08,0,.1.1,0,0,0-.06.05.21.21,0,0,0,0,.18.1.1,0,0,0,.06,0A.11.11,0,0,0,15.46,25.92Z" fill="#e5a310"/><path d="M16,26l-.1,0a.11.11,0,0,1-.07-.06.11.11,0,0,1,0-.08.24.24,0,0,1,0-.08.18.18,0,0,1,.07-.05.27.27,0,0,1,.13,0h.15v.08h-.14s-.07,0-.08,0a.06.06,0,0,0,0,.1l.07,0,.09,0a.15.15,0,0,0,.05-.06l0,.07a.12.12,0,0,1-.07.07A.2.2,0,0,1,16,26Zm.16,0v-.31a.1.1,0,0,0,0-.09.12.12,0,0,0-.09,0l-.09,0-.07,0-.05-.09a.19.19,0,0,1,.1,0l.12,0a.24.24,0,0,1,.18.06.2.2,0,0,1,.06.16V26Z" fill="#e5a310"/><path d="M16.73,26a.23.23,0,0,1-.14,0,.24.24,0,0,1-.11-.09.34.34,0,0,1,0-.28.24.24,0,0,1,.11-.09.23.23,0,0,1,.14,0,.32.32,0,0,1,.14,0,.2.2,0,0,1,.09.09l-.1.06s0,0-.06-.06h-.07a.11.11,0,0,0-.08,0l-.06.05a.21.21,0,0,0,0,.18l.06,0a.11.11,0,0,0,.08,0h.07s.05,0,.06-.06l.1.06a.2.2,0,0,1-.09.09A.32.32,0,0,1,16.73,26Z" fill="#e5a310"/><path d="M17.33,26a.29.29,0,0,1-.16,0,.28.28,0,0,1-.1-.09.34.34,0,0,1,0-.28.22.22,0,0,1,.1-.09.21.21,0,0,1,.14,0,.2.2,0,0,1,.13,0,.28.28,0,0,1,.1.09.32.32,0,0,1,0,.14v0h-.44v-.08h.37l0,0a.24.24,0,0,0,0-.08s0,0-.06-.05l-.07,0-.08,0-.06.05a.25.25,0,0,0,0,.09v0a.12.12,0,0,0,0,.08l.06.06h.17l.06,0,.07.07-.09.07Z" fill="#e5a310"/><path d="M18.19,26v-.27l0,.08-.3-.5h.14l.24.4h-.08l.24-.4h.13l-.3.5,0-.08V26Z" fill="#e5a310"/><path d="M18.86,26a.23.23,0,0,1-.14,0,.18.18,0,0,1-.1-.09.27.27,0,0,1,0-.28.18.18,0,0,1,.1-.09.27.27,0,0,1,.28,0,.18.18,0,0,1,.1.09.26.26,0,0,1,0,.28A.18.18,0,0,1,19,26,.23.23,0,0,1,18.86,26Zm0-.11a.11.11,0,0,0,.08,0,.12.12,0,0,0,0,0,.15.15,0,0,0,0-.18.12.12,0,0,0,0-.05.17.17,0,0,0-.16,0l-.06.05a.21.21,0,0,0,0,.18l.06,0A.11.11,0,0,0,18.86,25.92Z" fill="#e5a310"/><path d="M19.5,26a.27.27,0,0,1-.12,0,.12.12,0,0,1-.07-.07.28.28,0,0,1,0-.13v-.3h.12v.28a.18.18,0,0,0,0,.11.12.12,0,0,0,.09,0l.08,0a.12.12,0,0,0,0,0,.2.2,0,0,0,0-.09V25.5h.12V26h-.12v-.14l0,0a.16.16,0,0,1-.08.08A.2.2,0,0,1,19.5,26Z" fill="#e5a310"/><path d="M20.28,26v-.69h.3a.42.42,0,0,1,.2.05.37.37,0,0,1,.13.12.35.35,0,0,1,0,.36.37.37,0,0,1-.13.12.42.42,0,0,1-.2,0Zm.13-.11h.17a.28.28,0,0,0,.13,0,.18.18,0,0,0,.09-.08.21.21,0,0,0,0-.12.28.28,0,0,0,0-.13.24.24,0,0,0-.09-.08.28.28,0,0,0-.13,0h-.17Z" fill="#e5a310"/><path d="M21.35,26a.24.24,0,0,1-.15,0,.18.18,0,0,1-.1-.09.27.27,0,0,1,0-.28.2.2,0,0,1,.09-.09.27.27,0,0,1,.28,0,.2.2,0,0,1,.09.09.23.23,0,0,1,0,.14v0h-.43v-.08h.37l-.05,0a.12.12,0,0,0,0-.08l-.05-.05-.08,0-.08,0-.05.05a.24.24,0,0,0,0,.09v0a.24.24,0,0,0,0,.08l.06.06h.17l.07,0,.06.07a.22.22,0,0,1-.09.07Z" fill="#e5a310"/><path d="M21.9,26l-.12,0a.19.19,0,0,1-.1,0l.05-.09.08,0,.1,0,.08,0s0,0,0,0,0,0,0,0l0,0h-.14l-.06,0a.1.1,0,0,1-.05,0,.14.14,0,0,1,0-.07.12.12,0,0,1,0-.09.24.24,0,0,1,.08-.06l.13,0H22a.19.19,0,0,1,.09,0l-.05.09-.07,0h-.08l-.08,0s0,0,0,0a.05.05,0,0,0,0,0h.05l.06,0H22l.06,0,.05.05a.12.12,0,0,1,0,.07.11.11,0,0,1,0,.08A.16.16,0,0,1,22,26Z" fill="#e5a310"/><path d="M22.52,26a.29.29,0,0,1-.16,0,.28.28,0,0,1-.1-.09.34.34,0,0,1,0-.28.22.22,0,0,1,.1-.09.21.21,0,0,1,.14,0,.2.2,0,0,1,.13,0,.28.28,0,0,1,.1.09.32.32,0,0,1,0,.14v0h-.44v-.08h.38l-.05,0a.24.24,0,0,0,0-.08.1.1,0,0,0-.06-.05l-.07,0-.08,0-.06.05a.25.25,0,0,0,0,.09v0a.12.12,0,0,0,0,.08.17.17,0,0,0,.06.06h.17l.06,0,.07.07-.09.07Z" fill="#e5a310"/><path d="M22.9,26V25.5H23v.1a.14.14,0,0,1,.07-.08.28.28,0,0,1,.13,0v.12h0a.14.14,0,0,0-.11,0s0,.06,0,.12V26Z" fill="#e5a310"/><path d="M23.49,26l-.22-.52h.13l.19.46h-.06l.2-.46h.12l-.23.52Z" fill="#e5a310"/><path d="M24.18,26A.24.24,0,0,1,24,26a.24.24,0,0,1-.11-.09.34.34,0,0,1,0-.28.28.28,0,0,1,.1-.09.27.27,0,0,1,.28,0,.2.2,0,0,1,.09.09.33.33,0,0,1,0,.14v0H24v-.08h.37l-.05,0a.24.24,0,0,0,0-.08.12.12,0,0,0-.05-.05l-.08,0-.08,0a.12.12,0,0,0,0,.05.24.24,0,0,0,0,.09v0a.24.24,0,0,0,0,.08s0,0,.06.06h.17s0,0,.06,0l.07.07a.22.22,0,0,1-.09.07Z" fill="#e5a310"/></svg>